<?xml version="1.0" encoding="UTF-8"?>
<svg id="Layer_1" data-name="Layer 1" xmlns="http://www.w3.org/2000/svg" viewBox="0 0 327.83 151.66">
  <defs>
    <style>
      .cls-1 {
        stroke: #ec2027;
        stroke-miterlimit: 10;
      }

      .cls-1, .cls-2 {
        fill: #ed1c24;
      }

      .cls-3 {
        fill: #ec2027;
      }

      .cls-4 {
        fill: #0054a6;
      }
    </style>
  </defs>
  <g>
    <path class="cls-4" d="m152.11,85.89h-12.01v-22.51l-9.91-12.04c-1.71-2.07-3.45-4.2-5.24-6.37-1.79-2.17-3.53-4.29-5.21-6.37h13.01l14.15,17.03c2.33-2.85,4.65-5.69,6.96-8.53,2.31-2.84,4.63-5.67,6.96-8.5h11.43l-20.14,24.75v22.53Z"/>
    <path class="cls-4" d="m176.29,85.89v-47.28h39.36v5.62h-27.32v14.31h23.86v5.14h-23.86v16.6h29.52v5.62h-41.57Z"/>
    <path class="cls-4" d="m242.52,85.89v-42.1h-21.37v-5.19h54.42v5.19h-21.04v42.1h-12.01Z"/>
    <path class="cls-4" d="m292.96,85.89h-12.04v-47.28h12.04v47.28Z"/>
  </g>
  <g>
    <polygon class="cls-4" points="71.81 58.02 73.72 60.62 91.82 51.61 97.32 34.73 96.68 34.93 71.35 54.36 71.81 58.02"/>
    <path class="cls-4" d="m32.45,34.78c7.85,3.66,15.39,7.16,22.89,10.71.55.26,1.06.88,1.33,1.45,5.7,12.14,11.37,24.29,17.01,36.46.21.45.27,1.16.07,1.6-6.06,13.08-12.17,26.13-18.36,39.4-2.14-4.57-4.2-8.95-6.25-13.34-.84-1.8-1.76-3.57-2.46-5.42-.26-.68-.27-1.67.03-2.33,2.69-5.96,5.45-11.89,8.26-17.8.44-.93.42-1.6,0-2.51-7.48-15.96-14.92-31.94-22.5-48.23Z"/>
    <path class="cls-3" d="m66.68,60.14c.65-1.12,3.92-9.2,6.82-14.16.11-.19.31-.38.52-.46,6.35-2.8,23.14-10.87,23.31-10.93-.47.82-3.62,8.94-6.7,14.26-.15.26-.34.43-.62.55-5.18,2.26-14.23,6.57-19.4,8.84-.08.04-.16.08-.28.13.08.1.14.19.21.27,1.33,1.49,2.66,2.98,3.98,4.47.15.16.27.25.52.23.53-.05.92.42.8.95-.05.23.02.29.2.42.59.38,1.14.82,1.7,1.24,1.01.76,2.02,1.53,3.03,2.29.34.26.36.44.05.72-.53.48-1.06.96-1.6,1.43-.29.25-.46.23-.66-.11-.98-1.65-1.96-3.3-2.93-4.96-.04-.07-.03-.17-.09-.22-.09-.08-.21-.2-.32-.2-.63.02-1-.38-.9-1,.02-.1-.01-.25-.08-.33-1.42-1.61-2.85-3.2-4.27-4.81-.15-.17-.26-.13-.42-.06-.9.4-1.81.8-2.71,1.19-.01-.02-.13.27-.15.25Z"/>
  </g>
  <line class="cls-1" x1="109.31" y1="36.17" x2="109.31" y2="119.45"/>
  <g>
    <path class="cls-2" d="m160.9,105.47l-.35,1.1c-.67,2.11-1.96,3.93-3.72,5.26-1.8,1.36-3.94,2.07-6.18,2.07-2.51,0-4.94-.93-6.83-2.61-1.88-1.66-3.11-3.95-3.47-6.45-.07-.51-.11-1.03-.11-1.55s.03-1.01.1-1.49c.35-2.51,1.57-4.82,3.45-6.49,1.9-1.69,4.33-2.63,6.86-2.63,2.3,0,4.48.75,6.31,2.17,1.77,1.37,3.08,3.32,3.69,5.49l.3,1.08h-4.57l-.21-.51c-.95-2.27-3.12-3.73-5.53-3.73-2.85,0-5.32,2.06-5.89,4.91-.08.39-.12.8-.12,1.21s.04.85.13,1.26c.58,2.82,3.05,4.86,5.88,4.86,2.29,0,4.41-1.36,5.41-3.47l.22-.48h4.62Z"/>
    <path class="cls-2" d="m184.78,103.36c0,5.81-4.64,10.54-10.34,10.54s-10.34-4.73-10.34-10.54,4.64-10.54,10.34-10.54,10.34,4.73,10.34,10.54Zm-10.34-6.14c-3.32,0-6.02,2.75-6.02,6.14s2.7,6.14,6.02,6.14,6.02-2.75,6.02-6.14-2.7-6.14-6.02-6.14Z"/>
    <path class="cls-2" d="m204.45,109.41v4.49h-16.51v-21.3h4.41v16.81h12.11Z"/>
    <path class="cls-2" d="m224.11,109.41v4.49h-16.51v-21.3h4.41v16.81h12.11Z"/>
    <path class="cls-2" d="m245.8,92.75v4.49h-18.54v-4.49h18.54Zm-14.13,16.66h14.13v4.49h-18.54v-4.49s0-9.06,0-9.06l4.41.03h12.28v4.49h-12.28v4.54Z"/>
    <path class="cls-2" d="m267.9,100.42v4.49h0v8.99h-9.07c-2.8,0-5.45-1.08-7.44-3.04-2.03-2-3.15-4.66-3.15-7.51s1.12-5.51,3.15-7.51c1.99-1.96,4.64-3.04,7.44-3.04h9.03v4.49h-9.95c-3.05.44-5.34,3.04-5.34,6.06s2.29,5.62,5.34,6.06h5.57v-4.5h-5.14l-.22-.49-1.27-2.81-.54-1.2h11.59Z"/>
    <path class="cls-2" d="m289.58,92.75v4.49h-18.54v-4.49h18.54Zm-14.13,16.66h14.13v4.49h-18.54v-4.49s0-9.06,0-9.06l4.41.03h12.28v4.49h-12.28v4.54Z"/>
  </g>
</svg>